<?xml version="1.0"?>
<svg id="Layer_2" xmlns="http://www.w3.org/2000/svg" version="1.1" viewBox="0 0 1368 936" fill="#FFFFFF">
  
  <defs>
    
  </defs>
  <g>
    <g>
      <polygon class="st0" points="205.5 346.4 210.3 346.4 207.9 326.3 205.5 346.4"></polygon>
      <path class="st0" d="M228.3,322.5v15c3.9,0,5.7-4.1,5.7-7.9,0-3.7-1.7-7.1-5.7-7.1Z"></path>
      <path class="st0" d="M158.8,305.5v64.3h142.8v-64.3h-142.8ZM279.9,322.8h-7.6v10.5h7.6v8.6h-7.6v10.7h7.6v8.5h-16.1v-42.1l-6.7,42.1h-9.9l-4.7-28.3c-.5,3.9-2.2,7.6-5.3,10l5.4,18.2h-8.5s-3.9-15.3-3.9-15.3c-.6,0-1.3.1-2,.2v15.1h-16.1l-.9-7.2h-6.7l-.9,7.2h-16.3v-23l-3.6,23h-5l-3.6-23v23h-8.5v-47.1h10.9l3.6,23.8,3.6-23.8h10.9v42.9l6.5-42.9h11.3l6.2,41.4v-41.4h8.5c6.1,0,10.2,3.3,12.5,7.6l-1.3-7.6h8.8l3.9,28.4,3.9-28.4h23.8v8.7ZM297,361.2h-15.7v-47.1h8.5v38.5h7.2v8.5Z"></path>
    </g>
    <path class="st0" d="M152.5,298.9h156.9v77.5h-158.3v-77.5h1.4ZM306.6,301.8h-152.6v71.8h152.6s0-71.8,0-71.8Z"></path>
  </g>
  <g>
    <g>
      <path class="st1" d="M677.3,280.7c-.3-.2-3.1-2.3-3.4-2,0,2.5-2,4.6-4.5,4.3.4-2.9,2.1-3.5,4.5-4.4l-3.3-1.8c-.1,2.3-2,4.5-4.4,4.3-.2-2.9,2-3.5,4.3-4.4l-2.2-1.5.2-3.8c1.1.8,0,2.7,1.3,3.4l16,8v-15c-.5-1.3-8.5-5.1-10.2-6.5s-.5-.4-.6-.8.2-1.4.5-1.3c0,.4,0,.8.1,1.1.3.7,9,4.8,10.4,5.4v-3.7c-2-.2-3.6-1-4.3-2.9s-.6-1.4.2-1.3c1.4,0,2.4.9,3.3,1.8s.4,1.2.8,1.3v-3.7c-2.4,0-4.3-1.8-4.5-4.1,2-.2,4,1.3,4.4,3.3.8-.9.3-2.4.4-3.5l-.2-.3c-1.8-.2-3.2-.8-4-2.5-1.6-3.3,2.2-1.3,3.3.1l1,2v-4.5c-2.7.5-4.1-1.7-4.8-4,1.5-.2,3.4.7,4.1,2s.2,1.5.7,1.7v-4.3c-2,0-3.5-.9-4.2-2.7s-.8-1.6,0-1.5c1.3.1,2.9,1,3.5,2.2s.1,1.4.6,1.5l.2-4c-2.6-.6-4.5-1.6-4.7-4.5,1.9.2,4.1,1.3,4.3,3.4l.6-.7.3-2.4.6,31.5c2.7-1.2,5.6-2.5,8.2-3.9s.5-.6.6-.6c-2.5-.3-4.1-1.8-4.5-4.3,2.5-.2,4.7,1.7,4.5,4.3.9-.5,1.7-.2,2.1-1.7.2.3.2,1.4,0,1.6-.3.5-8.1,4.5-9.3,5.3-3,2-1.5,4.9-1.4,7.9s0,5.8,0,8.7l15.9-8.1c1.4-1.1,1.2-2.2,1.2-3.8l.6,3.8-.3.6c-4.6,2.9-9.6,5.3-14.2,8.3s-3.1,1.8-3.2,4.2c0,.9.3,1.7.3,2.5,0,4.3,0,8.6,0,12.9l1.3-.2,21.7-11.3c1.5-1.9.5-4,.6-6.1.4,0,.4.5.5.8.2.9.8,5.2.7,5.9s-.2.5-.5.7c-6,3.6-12.2,6.9-18.1,10.6s-5.6,2.6-5.9,5.5c-.5,5,.3,10.8.3,15.8l30.5-15.6c2.1-1.8.7-6.1,1-8.5.6.1.5.6.6,1,.5,2.9.8,5.9.9,8.8l-30.4,18c-1.8,1.4-2.5,2.8-2.6,5.1s.3,2.1.3,3.1c0,3.3,0,6.5,0,9.8l37.1-19c2.6-2.2.9-7.5,1.3-10.5l.6,1c.1,3.6,1.3,7.3,1,10.9-9.6,6-19.7,11.5-29.5,17.4s-8,4.4-9.2,5.9-.9,1.5-1,2.4c-.2,1.7-.2,6,0,7.6s.4,1.5.8,1.9c.6.7,2,.6,2,1.6h-10.5c0-1,1.3-.8,2-1.6s.8-1.2.8-1.7c.2-1.6.2-6.5,0-8.2-.3-2.6-3.3-3.9-5.3-5.2-11.1-7-22.9-13.1-34-19.9l-.4-.5,1.4-11.7c1.1.4.3,1.2.3,1.6v7.1c0,0,.7,1.3.8,1.4l37.5,19.4c0-3,0-6,0-9s.4-2.7.3-4.3c-.2-2.5-.9-3.4-2.7-5l-30.3-17.8c.3-2.9.4-5.9.9-8.7s0-1.1.5-1c.3,2.9-1.1,6.3,1.1,8.6l30.4,15.5.2-16.8c0-1.1-5-4.3-5.3-4-.1,2.5-1.9,4.5-4.5,4.3,0-1.7,1.1-3.1,2.6-3.8s1.4,0,1.9-.6c-1.6-1.1-3.3-2-4.9-3s-1.5-.5-1.9-.8c-.1,2.4-2.2,4.3-4.5,4.3,0-2.5,2.2-4.1,4.5-4.3-2.2-1.3-4.3-2.7-6.5-4-.4,2.3-2,4.5-4.5,4.3-.2-2.6,2.2-4,4.5-4.3-.4-.2-3.2-2.2-3.4-2,0,2.4-2,4.6-4.5,4.3,0-1.5,1.1-3.1,2.4-3.7s1.5-.2,2.1-.7c0-.1-2.1-.8-2.3-1.7s.5-4.7.7-5.6,0-1.1.5-1.1c.2,2.1-.9,4.2.6,6.1,7.5,3.8,14.8,7.9,22.3,11.5s.2.5.6,0l.3-16.8-1.6-2c-.4,1.9-1.4,3.7-3.4,4.1s-1.5,0-1-1.3c.9-1.9,2.1-2.5,4.1-2.8l-3.1-2c-.2,2.3-2.1,4.3-4.5,4.3,0-2.5,1.9-4,4.3-4.3.4-.5-2.9-1.8-3.1-2,0,2.4-2.1,4.4-4.5,4.3,0-2.5,2.2-4,4.5-4.3Z"></path>
      <path class="st1" d="M722.8,342.3c-2.5-.2-4.7-1.5-4.5-4.3,2.6-.2,4.5,1.7,4.5,4.3Z"></path>
      <path class="st1" d="M728.4,338.3c-2-.1-3.9-2.2-4-4.2s0-.7.4-.9c2.3.7,3.8,2.6,3.6,5.1Z"></path>
      <path class="st1" d="M726.5,324.7c-2.6.2-4.6-1.7-4.5-4.3,2.5.3,4.6,1.5,4.5,4.3Z"></path>
      <path class="st1" d="M719.6,307.4c-2.7.2-4.4-1.8-4.8-4.3,2.5,0,4.6,1.7,4.8,4.3Z"></path>
      <path class="st1" d="M711.1,342c.2,2.3-.5,5.1-3.1,5.4-.4-2.4.5-5,3.1-5.4Z"></path>
      <path class="st1" d="M698.3,340.6c-2.3,0-4.5-1.8-4.5-4.3,2.5,0,4.6,1.7,4.5,4.3Z"></path>
      <path class="st1" d="M719.6,303.1c-2.5,0-4.2-1.9-4.5-4.3,2.4,0,4.8,1.6,4.5,4.3Z"></path>
      <path class="st1" d="M683.5,296.1c.5,0,.6,0,.9.4-.6,1.5-1.1,2.8-2.8,3.5s-2.3.7-1.6-1.1,1.9-2.6,3.5-2.8Z"></path>
      <path class="st1" d="M656.3,283.8c1.9.3,4,1.4,4.4,3.4s-1,1-2,.6c-1.6-.8-2.5-2.2-2.4-3.9Z"></path>
      <path class="st1" d="M717.9,286.1c-.1,2.4-2.2,4.3-4.5,4.3,0-2.5,2.1-4.2,4.5-4.3Z"></path>
      <path class="st1" d="M701.5,248.9c.7,2.2-.2,4.8-2.4,5.7-1.4-2.1.3-4.8,2.4-5.7Z"></path>
      <path class="st1" d="M676.8,262.2c-.2,1.2-.8,2.7-1.8,3.4s-2.3,1.3-3,.4c.6-2.3,2.4-3.8,4.8-3.8Z"></path>
      <path class="st1" d="M673.1,307.1c-.2,2.4-2.1,4.2-4.5,4.3,0-2.5,2.1-4.4,4.5-4.3Z"></path>
      <path class="st1" d="M669.7,298.3c0,2.5-2.1,4.4-4.5,4.3,0-2.5,2.2-4,4.5-4.3Z"></path>
      <path class="st1" d="M703.7,254.9c-.2,1.1-.9,2.6-1.7,3.3s-3,1.5-3.1.6c.7-2.3,2.2-4,4.8-3.8Z"></path>
      <path class="st1" d="M711.4,288.1c-2.5.3-4.6-1.7-4.5-4.3,2.4.3,4.3,1.7,4.5,4.3Z"></path>
      <path class="st1" d="M668,273.9c-2.4.4-4.7-1.9-4.5-4.3,2.3.4,4.4,1.7,4.5,4.3Z"></path>
      <path class="st1" d="M731.3,311.4c.1,2.4-.7,4.4-3,5.4-1.4-2.2.7-5,3-5.4Z"></path>
      <path class="st1" d="M683.3,306.5c-.4,2.4-1.9,4.2-4.5,4.3-.2-2.6,2.1-4.2,4.5-4.3Z"></path>
      <path class="st1" d="M684.7,275.3c.2,1.3-.6,2.7-1.6,3.4s-2.3,1.3-3,.4c.7-2.3,2.1-3.6,4.5-3.8Z"></path>
      <path class="st1" d="M726.2,298.9c-.3,2.4-2.1,4.2-4.5,4.3-.2-2.6,2.1-4.2,4.5-4.3Z"></path>
      <path class="st1" d="M704,271c-2.4-.4-4-2.3-4-4.8,2.4.3,4.3,2.3,4,4.8Z"></path>
      <path class="st1" d="M716.4,328.2c.6.6,2,3,.4,2.8-2.2-.2-3.4-2-4-3.9.4-.6.4-.3.8-.2.7.1,2.3.8,2.8,1.3Z"></path>
      <path class="st1" d="M702.3,290.6c.9,2.2.8,4.6-1.3,6-1.4-1.8-.9-5.2,1.3-6Z"></path>
      <path class="st1" d="M669.9,274.2c-.1-1.1.4-2.4,1.3-3.1s3.2-1.7,3.3-.7c-.7,2.1-2.1,3.9-4.5,3.8Z"></path>
      <path class="st1" d="M726.7,306c0,2.5-2,4.5-4.5,4.3.3-2.6,2.1-4,4.5-4.3Z"></path>
      <path class="st1" d="M681.3,273.6c0,2.3-2.2,4.3-4.5,4.3.1-2.4,2.2-4.3,4.5-4.3Z"></path>
      <path class="st1" d="M694.9,299.7c-.9-2.1-.8-4.6,1.3-6,1.4,1.8.9,5.2-1.3,6Z"></path>
      <path class="st1" d="M710.6,270.8c0,2.4-2.2,4.3-4.5,4,.2-2.4,2.1-4.2,4.5-4Z"></path>
      <path class="st1" d="M677.3,292.6c-.2,2.3-2.1,4.3-4.5,4,0-2.4,2.2-4.1,4.5-4Z"></path>
      <path class="st1" d="M706,330.1c1.6-.3,3.4.8,4.2,2.2s1,2.1,0,2c-2-.1-3.8-2.3-4.2-4.2Z"></path>
      <path class="st1" d="M662.6,291.2c-.2-1.9,1.1-3.3,2.8-3.9s1.4-.6,1.8,0c-.7,2.2-2,3.9-4.5,3.8Z"></path>
      <path class="st1" d="M700.9,307.4c-2.4,0-4.4-1.9-4.5-4.3,2.4,0,4.4,1.9,4.5,4.3Z"></path>
      <path class="st1" d="M677.9,271.9c-.3,2.3-2,4.3-4.5,4,0-2.4,2.2-4.1,4.5-4Z"></path>
      <path class="st1" d="M666.8,282.7c-.1,2.5-2.1,4.2-4.5,4.3.2-2.5,2-4.3,4.5-4.3Z"></path>
      <path class="st1" d="M721.9,313.1c2.2-.1,4.7,1.6,4.4,4-.3.6-2.6-.6-3-1-.7-.7-1.4-2-1.4-3Z"></path>
      <path class="st1" d="M670.2,288.9c.1,1.1-.4,2.4-1.3,3.1s-3.2,1.7-3.3.7c.7-2.3,2.1-3.6,4.5-3.8Z"></path>
      <path class="st1" d="M698.1,256.6c-2.6,0-3.8-2.2-4-4.5,2.3,0,4.3,2.2,4,4.5Z"></path>
      <path class="st1" d="M683.3,266.2c.1,1.2-.9,2.7-1.8,3.4s-2.5,1.3-2.7.4c.4-2.1,2.3-4,4.5-3.8Z"></path>
      <path class="st1" d="M694.6,289.2c-2.5-.2-4.2-1.7-4.5-4.3,2.5,0,4.6,1.7,4.5,4.3Z"></path>
      <path class="st1" d="M680.7,294.3c.7,1.7-3.5,5.3-4.4,4s2.8-4.6,4.4-4Z"></path>
      <path class="st1" d="M680.2,264.2c-.5,2.4-2,4.1-4.5,4.3-.2-2.6,2.1-4.2,4.5-4.3Z"></path>
      <path class="st1" d="M669.9,256c2.2-.2,4.1,1.7,4.5,3.8-.3.5-.4.3-.8.2-2-.2-3.8-2-3.8-4.1Z"></path>
      <path class="st1" d="M705.6,301.2c.5.5,2.1,3,.4,2.8s-3.8-2.1-3.8-4.1c.5-.5,2.8.8,3.3,1.2Z"></path>
      <path class="st1" d="M668.8,269.3c-2.3-.1-3.5-2.2-3.6-4.3s-.2-.5.3-.8c2.1,1,3.7,2.6,3.3,5.1Z"></path>
      <path class="st1" d="M660,292.6c-2.3-.3-4.3-1.7-4.3-4.3,2.3,0,4.5,1.8,4.3,4.3Z"></path>
      <path class="st1" d="M675.1,256.8c-2.5-.5-3.7-2.7-3.4-5.1,2.4.4,3.8,2.7,3.4,5.1Z"></path>
      <path class="st1" d="M679.9,251.2c-.1,2.5-1.1,4.6-3.7,5.1-.4-2.5,1.2-4.7,3.7-5.1Z"></path>
      <path class="st1" d="M707.4,327c-2.4-.3-4.3-1.7-4.3-4.3,2.3,0,4.5,1.9,4.3,4.3Z"></path>
      <path class="st1" d="M661.7,284.4c-2.5-.8-3.3-2.9-3.1-5.4,2.7.4,3.5,3,3.1,5.4Z"></path>
      <path class="st1" d="M676.5,259.7c-.1-2.2,1.6-3.8,3.8-4.1s.4-.3.8.2c-.7,2.1-2.1,4-4.5,3.8Z"></path>
      <path class="st1" d="M673.9,290.6c-.3,2.3-2.1,4.3-4.5,4.3,0-2.5,2.2-4.1,4.5-4.3Z"></path>
      <path class="st1" d="M708.3,264.2c.4,2.2-.6,4.9-3.1,5.1-.4-2.4.7-4.5,3.1-5.1Z"></path>
    </g>
    <g>
      <g>
        <path class="st1" d="M616.4,390c5.3.5,10.5,3.6,8.8,9.7s-3.3,3.9-5.8,5.2c1.8,2.4,3.5,9.6,6.2,10.8s3.6-.1,3.1,2.1h-8.2l-6.7-12.8h-10.2l-.4.4v10.1h2.6s-.4,1.7-.4,1.7h-10.1v-1.7s3.1,0,3.1,0v-23.4c-.4-.8-2.9-.2-3.1-.4v-1.7h21.2ZM603.2,391.7v11.5c.2.4.6.4,1,.4,2.6.3,9.3.2,11.8-.4,5-1.2,5.3-9.1,1-11s-1.4-.5-1.5-.5h-12.4Z"></path>
        <path class="st1" d="M517.8,384c.5.4.6,1,.7,1.6.5,2.8.6,6.1.9,8.9l-1.6-.3c-1.1-3.5-1.9-6.9-5.9-8s-1.9-.5-2.1-.5h-14.2l-.4.4v13.6l.4.4h10.8c.1,0,1.8-.5,2-.6,2-.8,2.2-2.6,2.1-4.6h1.4v11.9h-1.4c.1-2.3-.6-3.7-2.8-4.4s-4.2-.6-5.8-.7-4.7-.2-6,0-.5.1-.7.4v12.8l.5.4,2.4.2c.6.4.2,1.6-.2,1.6h-11.4l-.4-1.7,3.6-.3v-28.8c.1,0-.3-.7-.3-.7h-2.7s0-1.7,0-1.7h31.1Z"></path>
        <path class="st1" d="M536.7,389.5c8.2-.8,19.8,2.8,21.1,12.3,2.4,17.9-29.2,21.6-35.8,6.8-4.6-10.4,5.3-18.2,14.8-19.1ZM539,390.9c-9.3.2-13.3,6.3-12.4,15.1,1.2,13,21.7,13.6,25.1,2.4s-2.5-17.8-12.7-17.5Z"></path>
        <path class="st1" d="M570.5,390l-.3,1.6h-2.9c.4,9.7-3.1,26,11.8,24.5,4.2-.4,9.5-4.8,9.5-9.2v-15.2h-2.6s0-1.7,0-1.7h6.5v1.7s-2.1,0-2.1,0l-.4.4c-.4,8.8,2.6,21.3-8.4,24.9-5.5,1.8-14.1.5-17.4-4.6-.7-1.1-2.1-4.8-2.1-6.1v-14.6h-2.6c0-.1-.3-1.7-.3-1.7h11.1Z"></path>
      </g>
      <g>
        <path class="st1" d="M679.6,395.4c-1.9.2-1.7-1.7-2.3-2.9-2.2-4.5-5.3-6.8-10.4-7.2s-12.1.2-12.6,4.4,2.9,4.4,5.5,5.3c5.7,2,19.1,3.4,20.8,10.2,1.3,5.3-1.6,9.8-6.5,11.5-7.2,2.5-16.5,1.2-23.5-1.4-.3-.4-1.7-7.9-1.7-8.8s.7-1.2,1.3-.4,1.1,2.7,1.7,3.6c4.3,6.6,14.1,8,21,5.2,5.3-2.1,5.8-7.1.5-9.7-6.1-3-22.1-3.3-22.9-11.7-.5-4.6,2.4-7.6,6.6-9,7.3-2.4,15.2-.6,22,2.6l.7,8.2Z"></path>
        <path class="st1" d="M803.7,389.5c8.2-.8,19,2.6,20.7,11.8,3.4,18.2-29.5,22.6-35.9,6.9s5.8-17.8,15.1-18.6ZM805.7,390.9c-10.1.2-14.8,8.8-11.7,18,3.4,10.2,22.2,9.8,24.7-1.3s-3-17-13-16.7Z"></path>
        <path class="st1" d="M688.7,391.7h-2.8s0-1.7,0-1.7l26.5-.3c.2,0,.4,1,.4,1.3.2,1.3.6,4.1.6,5.4s-.3,1.1-1,1-1.4-3.8-3-5-1.4-.7-1.5-.7h-14.1v10.5h9.5c2.1,0,3.8-2.5,3.3-4.5h1.4v10.5h-1.4c.2-1.4-.3-3-1.6-3.6s-1.8-.6-1.9-.6h-9.1l-.4.4c0,.1.2.2.2.3v10.9h14.3c.5,0,2.4-.9,2.9-1.2,1.3-1.1,1.6-3.3,2.2-3.9s1.6-.6,1.6.1c-.1,1.3-.8,5.5-1.2,6.5s-.1.4-.4.5l-27.4-.3v-1.7s2.8,0,2.8,0v-23.8Z"></path>
        <path class="st1" d="M856.3,410.1v-18.5h-2.8s0-1.7,0-1.7h6.8l-.3,1.6h-2.3v26.8l-26.1-24.1v21.3h2.9c.6.5.2,1.7-.2,1.7h-6.8c-.2,0-.4-.5-.4-.7-.2-1.6,2.1-.9,3.1-1v-22.9c0-1.4-4.1-.2-3.1-2.7h7.5l20.9,19.7.9.4Z"></path>
        <path class="st1" d="M782.7,399.4c-.3,0-.8.1-1.1,0s-1.5-3.6-2.2-4.5c-3.1-4-9.6-4.3-14.1-3-5,1.5-4.4,5.1.1,7s17.3,3,18,9.2c1.2,9.3-9.2,10.4-16,9.8s-8.1-1.3-8.7-2.1l-1.4-7.8c.5,0,.6,0,1,.3s1.3,2.8,2,3.7c3.6,4.6,10,5.5,15.4,4.1s7-5.4,2.4-8-18-3.1-19.3-8.8,1.5-7.4,5.6-8.6c5.9-1.7,12-.4,17.4,2.3l.7,6.5Z"></path>
        <path class="st1" d="M888.4,399.4c-1.6.4-1.5-1.6-2.1-2.9-2.7-5.3-8.7-6.1-14.1-5-4.2.9-6.9,4.2-2.2,6.7s20.9,3,19.5,12.3c-1.5,9.7-18.3,7.9-24.8,5.3l-1.6-7.9h1.1c2.2,7,8.1,9.1,14.9,8.5s9.4-2.8,6.5-7.1c-2.5-3.8-15.3-3.7-19.6-8s-2-4.9-.9-7.1c3.1-6.4,16.7-4.9,21.8-1.9,1.8,1,1.1,5.1,1.4,7Z"></path>
        <path class="st1" d="M743.8,417.2l.3-1.6c.6-.4,2.5.3,2.3-.5l-3.7-6.9h-17.3c0,0-4,6.9-4,6.9-.3.9,2.3.2,2.6.4v1.7h-6.4l-.4-.5v-1c0,0,2.5-.3,2.5-.3l13.1-23.4c0-.6,0-.4-.4-.4-1.3-.2-2.7.2-1.4-1.7h6.8l14.2,25.3c.6.7,2.1,0,2.7.4s.2,1.6-.2,1.6h-10.7ZM741.5,406.7l-6.5-12.1-1.3-1.5-7.2,13.6h15.1Z"></path>
      </g>
    </g>
  </g>
  <path class="st1" d="M1044,744.9h10.9l-4.8-10.2h-1.3c-.3.6-2.1,4.4-4.8,10.2M1058.2,752h-17.6c-1.1,2.5-2.4,5.3-3.8,8.1h-8.3l16.4-33.6h9l16.4,33.6h-8.3l-3.8-8.1ZM1080.6,760.6c-5.5,0-9.1-3.8-9.1-9.7v-16.1h7.4v15c0,2.7,1.9,4,4.1,4s6.2-2.1,7-6.3v-12.7h7.3v25.3h-6.8l-.5-3.6c-2.4,2.8-6,4.1-9.3,4.1M1104.9,726.5h7.3v8.3h4v7.1h-4v7.3c0,3,.6,3.9,2.8,3.9s2.4-.1,3-.2v7.1c-1.1.2-3.2.3-4.4.3-5.9,0-8.6-3.5-8.6-10.8v-7.6h-3.5v-7.1h3.5v-8.3h0,0ZM1134.8,741.2c-3.6,0-5.9,2.3-5.9,6.1s2.3,6.8,6,6.8,6-2.3,6-6.1-2.4-6.8-6.1-6.8M1121.5,747.7c0-8.3,5.3-13.6,13.3-13.6s13.5,5.4,13.5,13.4-5.4,13.6-13.4,13.6-13.5-5.4-13.5-13.4M1190.2,734.8h7.1l-10,25.3h-7.3l-6.7-17-6.7,17h-7.3l-10-25.3h7.1l6.6,17.2,6.3-17.2h7.9l6.3,17.2,6.6-17.2h0ZM1205.3,744.4h12.1c-.7-2.4-2.6-3.8-6.3-3.8s-4.9,1.5-5.9,3.8M1218.1,751.5l5.2,3.2c-2.2,4.6-7.5,6.3-11.9,6.3-8.1,0-13.5-5.4-13.5-13.4s5.3-13.6,13.3-13.6,13.2,5.1,13.2,12.2-.6,3.4-.6,3.4h-18.6c.8,2.9,3.2,4.9,6.2,4.9,1.5,0,5.2,0,6.7-3M1235.4,744.4h12.1c-.7-2.4-2.6-3.8-6.3-3.8s-4.9,1.5-5.9,3.8M1248.1,751.5l5.2,3.2c-2.2,4.6-7.5,6.3-11.9,6.3-8.1,0-13.5-5.4-13.5-13.4s5.3-13.6,13.3-13.6,13.2,5.1,13.2,12.2-.6,3.4-.6,3.4h-18.6c.8,2.9,3.2,4.9,6.2,4.9,1.5,0,5.2,0,6.7-3M1265.7,745.2l13-10.4h9l-12.5,10.1c2.6,5.3,6.9,8.9,9.2,8.9s1.3,0,1.9-.1v6.4c-1.3.2-2.6.4-3.6.4-4.9,0-8.2-4-12.4-11.7l-4.6,3.7v7.6h-7.3v-33.6h7.3v18.8s0,0,0,0ZM1002.9,738.5c0-.4-.1-.8-.2-1.2-.3-2.2-1-4.2-2.1-5.8-1.3-2.1-4.8-5.4-10.2-5.4s-9,3.8-9.8,5.2c-1.6,2.2-2.4,6.1-2.5,7h0c0,0,3.4,0,3.4,0v3.1h3.7v-3.1h3.7v3.1h3.7v-3.1h3.7v3.1h3.7v-3.1h3s0,0,0,0ZM1006.3,743.5c-.1,0-.7,0-1.3-.1-.7,0-1.4-.5-1.5-1.2,0-.2,0-.4-.1-.7h-3.4v3h-3.7v-3h-3.7v3h-3.7v-3h-3.7v3h-3.7v-3h-3.6v5.7h13.5v.5c0,1.3.1,3.6.7,4.5.4.7,1.6,1.6,3.3,1.6,3.7,0,7.4-4.1,7.9-6.3.4-1.8-.4-3-3.1-3h6.2c.1,0,.5-.2.5-.5,0-.3-.3-.4-.7-.4ZM998.5,750.2c-1.2,1-2.6,1.3-3.1,1.3-1.5,0-1.8-1.1-1.8-3s0-.7,0-1.2c0-.4.4-.6.9-.6h5.2c1.6,0,1,1.8-1.2,3.4Z"></path>
  <path class="st1" d="M990.5,756.5c-.3-.5-.4-.6-.5-.9h0c.1-.2.2-.2.2-.3.3-.3.2-.9.2-1.6v-5.5h-9.5v2.6c0,.6,0,.9.7,1.6s3.5,2.5,4.6,3.2c0,0,.8.5,1.8.7,1.1,3,3.9,3.8,4,3.9.1,0,.3.1.3.1.2,0,.5-.1.6-.3,0,0,0-.1,0-.1,0,0,.2-.6.2-.6s0-.1,0-.2c.1-.4-.3-.7-.4-.8h-.2c-.4-.3-1.5-.9-2.1-1.8h0Z"></path>
  <path class="st1" d="M990.6,719c3.2,0,6.4.6,9.3,1.9,2.9,1.2,5.4,2.9,7.6,5.1,2.2,2.2,3.9,4.8,5.1,7.6,1.2,2.9,1.9,6.1,1.9,9.3s-.6,6.4-1.9,9.3c-1.2,2.9-2.9,5.4-5.1,7.6-2.2,2.2-4.8,3.9-7.6,5.1-2.9,1.2-6.1,1.9-9.3,1.9s-6.4-.6-9.3-1.9c-2.9-1.2-5.4-2.9-7.6-5.1-2.2-2.2-3.9-4.8-5.1-7.6-1.2-2.9-1.9-6.1-1.9-9.3s.6-6.4,1.9-9.3c1.2-2.9,2.9-5.4,5.1-7.6,2.2-2.2,4.8-3.9,7.6-5.1,2.9-1.2,6.1-1.9,9.3-1.9M990.6,716.7c-14.1,0-25.5,11-26.2,24.9-.8,15.5,12.1,28.5,27.7,27.7,13.9-.7,24.9-12.2,24.9-26.2s-11.8-26.3-26.3-26.3Z"></path>
  <g>
    <path class="st1" d="M766.3,718.4l11,38.4c.3.9,2.1,4.9,3,4.9,1.2-2,2.5-4,2.7-6.4v-32.2c-.2-1.7-2.9-2.8-3.6-4s-.2-.4-.2-.7h9l18.4,34.4v-27.1c0-.2-.4-1.4-.5-1.7-.9-2.2-3.4-3.7-5-5.2l.2-.4h21.9c.2.8-1,1-1.5,1.4-1,.8-1.1,1.6-.8,2.8l8.1,17.9c1.7-4.2,3.8-8.3,5.4-12.5s1.8-3.9.6-6-2.6-2.1-2.9-3.6h10.1c0,.3,0,.5-.2.7-.8,1.2-2.1,2.4-3,3.7-4,5.8-6.1,14-9.3,20.4.2,4.4-.5,9.5,0,13.8s1.7,3.5,3.6,5.1l-.3.5h-12.9l-.3-.5c1.1-1.1,3.2-2.4,3.4-4,.7-4.4-.4-10.5,0-15-2.9-6-5.2-12.4-8.2-18.4s-2.2-3.8-3.4-5.6c-.3-.2-2.1,3.3-2.2,3.7s-.8,2.3-.8,2.7v36.9l-.3.3h-3.6l-19.6-36.7v28.7c0,.2.3,1.4.3,1.7.7,2.4,3.3,4.2,5.2,5.7l-.2.6h-22.1c-.2-.9.3-.8.7-1.2,2.3-2.4,2.2-2.4,1.4-5.7s-1.5-5.1-2.2-7.6h-13.2c-.5,2.7-2.4,6.4-2,9.1s2.6,3.5,4,4.9l-.3.5h-10.1l-.3-.5c1.8-2.2,4-3.9,4.8-6.8l9.2-32.9c0-1.1-2.3-2.6-2.9-3.5l.2-.4h8.8ZM767.5,746.4l-6.2-21.8-5.8,21.8h12.1Z"></path>
    <g>
      <path class="st1" d="M690.1,718.4l10.3,32,10.3-32h9.2l.2.4c-1.3,1.5-3.2,2.5-3.3,4.7.6,10.9-.8,22.5,0,33.2s.3,2,1.1,3.1,1.8,1.4,2.3,2.3c-.2.7-4,.1-4.7,0-2.8,0-5.6,0-8.4,0-.4-.4,1.5-1.7,1.8-2.1.6-.6,1.4-1.8,1.4-2.6v-31.5l-11.7,36.7h-.6c0,0-11.9-36.1-11.9-36.1v28.7c0,.1.4,1.3.5,1.5.9,2.2,2.9,3.6,4.5,5.1l-.3.5h-10.1l-.3-.5c1.8-2.1,3.6-4.2,3.8-7.1v-32c0-.3,0-.5-.2-.8-.5-.9-2.7-2.3-3.2-3s-.2-.4-.2-.7h9.5Z"></path>
      <path class="st1" d="M732.8,745.2v11.6c0,.4.4,2,.6,2.4.6,1,2.2,2,3,2.9l-.3.5h-12.7l-.3-.8c1.3-.8,3-2.4,3.2-3.9v-34.5c0-1-.6-1.9-1.2-2.6s-2.5-1.9-2-2.3c8.7.5,23.8-2.6,27.6,8s.9,11.9-3.1,15.4-9.8,3.6-14.8,3.4ZM733.1,720l-.3.3v23l.3.3h4.4c7,0,7.4-8.3,7.2-13.4-.3-5.5-2-10.2-8.4-10.2h-3.2Z"></path>
      <path class="st1" d="M675.8,718.2v5.6c-.4,0-.6,0-1-.2-3.9-1.6-6-4.2-10.8-4.5-14.6-.9-16.4,12.9-15.8,24.3s3.7,17.4,13.8,18.2,7.5-1.1,11.1-3.7,2.9-2.6,3.2-2.3c-.3,1.8-.4,4-.9,5.7s-.2.5-.5.7c-1,.6-6.2,1.2-7.6,1.3-9.8.5-19.9-2.2-24.5-11.6s-3.2-18.7,1.8-25.5,20.3-9.7,31-8Z"></path>
      <path class="st1" d="M665.7,726.9c6-.7,11,1.5,13.2,7.2,3.4,8.6-.8,19.5-11.1,19.5-15.7,0-15.7-25.1-2.2-26.7ZM666.5,728.3c-1.3.2-2.6,1.2-3.2,2.4-1.7,3.3-1.6,15.3,0,18.7s7.4,3.8,9.2.2,1.4-10.9,1.1-14.6-2.2-7.5-7.1-6.7Z"></path>
    </g>
    <g>
      <path class="st1" d="M571.5,718.4v6.6c-.3,0-.5,0-.8-.1-2.6-.9-7.5-4.9-10.2-4.9h-4.7v18.9h4.9c.5,0,1.9-.6,2.3-.9,1-.7,2.2-2.6,2.9-3.1s.4-.2.7-.2v10.3c-1.1,0-1.8-1.8-2.6-2.5s-2.2-1.7-2.9-1.7h-5.3v17c0,1.6,2.4,3.2,3.4,4.2l-.3.5h-12.7l-.3-.5c1.8-1.7,3.2-2.4,3.4-5-.5-10.7.7-22.1,0-32.6s-.2-1.9-.6-2.7-2-1.8-2.7-2.6-.3-.3-.2-.7h25.6Z"></path>
      <path class="st1" d="M637.5,718.4v6.6c-1.4-.3-2.7-1.4-4-2.2-2.4-1.4-4.9-3.2-7.7-2.9v38.2c0,1,2.7,3.1,3.4,3.8l-.3.5h-12.9l-.3-.5c1-1,2.4-1.7,3-3s.6-1.6.6-2v-37c-4.6-.4-7.9,3.7-11.9,5v-6.6h30Z"></path>
      <path class="st1" d="M605.3,718.6v6.4c-1.3-.3-2.2-1.8-3.2-2.7-2.2-1.9-4-3.3-7.1-2.6s-3.6,2.9-3.6,5c0,10.6,18.8,13.4,17.7,27.2s-14,12.6-22.9,9.6l-2.5-7c.4,0,.6,0,.9.2,1.1.5,3.1,2.4,4.3,3.2,4,2.8,11.3,6.1,14.3.1,4.6-9.1-8.7-15.7-13.4-21.2-3.5-4.1-4.8-10-1.6-14.7s11.3-4.3,17-3.4Z"></path>
      <path class="st1" d="M580.3,726.2l8,22.2c.4.6.6,1.4,1,2,.7,1,2.2,1.8,2.7,3h-11.3c-.2-.8.6-.8,1.1-1.2,1.1-1,1.3-1.4,1-3s-1.3-4-1.5-4.1h-9.7c-1.1,3.7-2.3,4.8,1,7.4s1,.1.8.9h-8.1c0-1,1.2-1.6,1.8-2.3s1.3-1.7,1.7-2.7l6.3-18.9c.2-1.4-1.9-2-2-3.3s0,0,0,0h7ZM572.3,743.6h8.5l-4.5-12.3-3.9,12.3Z"></path>
    </g>
  </g>
  <g>
    <path class="st1" d="M387.4,723l-13.4,17h-1.7l7-17"></path>
    <path class="st1" d="M130.1,764.1c-4.5,0-8.5-1.1-11.4-2.6l-2.9,2.6h-1.4l-.9-16.6h1.6c4.7,10.6,10.3,14,15.5,14s8.6-3.5,8.6-8.2-1.7-6.7-8.8-9.6c-2.4-1-5.2-1.9-7.5-3.1-5.3-2.6-8-6.7-8-12.2,0-8.9,7.7-14.3,15.3-14.3s6.3,1,8.8,2.5l2.9-2.5h1.3l1.3,14.6-1.5.2c-4.1-8.2-8.6-12.3-13.5-12.3s-7.1,2.8-7.1,7.2,1.5,6.2,6.8,8.5c2.6,1.2,5.7,2.2,8.5,3.6,6.1,2.9,8.9,6.7,8.9,12.3,0,9.9-8.3,15.7-16.5,15.7"></path>
    <path class="st1" d="M169.5,764.2c-11.4,0-17.1-8.1-17.1-18.1s6.5-18,18-18,16.9,8.1,16.9,17.9-6.3,18.2-17.9,18.2h0ZM169.8,730.2c-5.3,0-8.5,5.8-8.5,16.1s3.5,15.8,8.8,15.8,8.5-5.8,8.5-16.1-3.2-15.8-8.8-15.8"></path>
    <path class="st1" d="M203.8,763.9c-5.9,0-7.8-2.9-7.8-8.3v-22.3h-5.6v-1l6.9-5.5,5.5-7.1h1.1v9.7h11.4v3.9h-11.4v19.4c0,3,.5,4.8,2,5.8,1.3.9,3,1.2,5.5,1.2s2.7,0,4.1-.1v1c-2.9,1.8-7.7,3.4-11.7,3.4"></path>
    <path class="st1" d="M238.9,733.8c-2.9,0-5,.5-7.8,1.9v24.7l4.2,1.6v1h-17v-1l4.7-1.6v-45.1l-5.2-3.4v-.7l12.9-3.5.3.2v26.2h.3c4.4-4,8.5-5.9,12.6-5.9,6.8,0,9.6,5.1,9.6,10.4v21.9l4.7,1.6v1h-17v-1l4.2-1.6v-18.8c0-4.9-2-7.8-6.6-7.8"></path>
    <path class="st1" d="M269.4,743.6c0,9.5,2.7,15.7,11.2,15.7s6.8-.7,11.4-2.4l.5.9c-4.6,4-9.7,6.4-14.5,6.4-10.3,0-17.1-7-17.1-17.4s8.1-18.7,17.3-18.7,14.7,6.6,14.7,15.5h-23.4,0ZM284.4,741c-.3-7-2.3-10.8-6.8-10.8s-7.7,4.6-8.1,11.5l14.9-.7"></path>
    <path class="st1" d="M312.8,764.2c-3.9,0-9.1-.9-12.7-1.9v-47l-5.3-3.4v-.7l13-3.5.3.2v25l.3.2c2.6-2.6,6.2-4.9,10.9-4.9,7.1,0,13.6,6.5,13.6,17.2s-8.1,18.9-20.2,18.9h0ZM314.1,733.3c-2.3,0-4.1.4-5.9,1.2v23.7c2.3,2.4,5.3,3.4,8.2,3.4,4.4,0,8.1-4,8.1-14.5s-4-13.8-10.4-13.8"></path>
    <path class="st1" d="M353.6,765.3c-3.8,9.2-7.3,13.2-12,13.2s-5.9-2.3-5.9-4.7,2.1-4.3,4.5-4.3,4.1,1.3,5.9,3.6c1.4-1.6,3.2-4.3,4.1-6.4l1.3-2.8-13.3-31.9-4.6-1.8v-1h18.4v1l-4.8,1.8,8.1,21.9h.4l7.4-21.4-4.4-2.3v-1h12.9v1l-4.9,2.5-13.2,32.6"></path>
    <path class="st1" d="M396.4,764.2c-4.1,0-7.7-.7-11.1-2v-9.9c0,0,1.4-.2,1.4-.2,4.1,7.1,7.1,9.8,11.1,9.8s5.7-2.2,5.7-5.7-4-5.4-8.3-7.1c-4.7-2-9.8-4.3-9.8-10.5s5.3-10.6,12.9-10.6,7.1.6,9.1,1.3l.2,8.9-1.4.4c-3.7-6.1-6.1-8.4-9.5-8.4s-5.1,2.1-5.1,4.8c0,3.9,4.1,5.5,8.3,7.2,4.7,1.9,9.9,4.2,9.9,10.5s-6.2,11.4-13.5,11.4"></path>
  </g>
  <g id="layer1">
    <g id="g3873">
      <g id="path3875">
        <path class="st1" d="M1086.9,323.7c-1,0-1,1.5-1,1.5.1,5.8,4.6,7.2,4.6,7.2,1.7,1,2-.4,2-.4l1.4-2.7-2.5-5.9-4.6.2ZM1093.9,312.5l6.7,15.4c.8,1.7,1.7.5,1.7.5,1.1-.6,1.5-.3,1.5-.3.7.5,0,1.2,0,1.2l-2.6,5c-.7,1.9-2.6.2-2.6.2-.7-.3-2.7-2-2.7-2-.7-1.1-1.5,0-1.5,0l-2.9,5.3c-.9,2.2-3.6.8-3.6.8-9.4-3.1-4-15.3-4-15.3.5-2.1,1.8-1.8,1.8-1.8l4.8-.2c-.2-1.5-2.1-4.7-2.1-4.7-.5-1.2-1.3-.9-1.3-.9l-8.1.5c-.7,0-.7-.5-.7-.5-.2-.5.7-.9.7-.9,1.6-.6,3-3.1,3-3.1,1-1.4,2.2-1.1,2.2-1.1l4.9-.2c3.6-.2,4.6,2.1,4.6,2.1"></path>
      </g>
    </g>
    <g id="g3877">
      <g id="path3879">
        <path class="st1" d="M1217.8,327.2l-4.7.8s-.8.1-.7.6c0,0,0,.5.5.6l.5.4s1.2.6.1,2.1l-6,9.9s-3,4.6-1.8,8.3c.5,1.6-1.1,3.9-1.2,3.9,0,0-.2-1.6-4.3-3.5,0,0-1.3-.9-2.6.3l-1.7,1.4s-.8.8,0,1c0,0,2.2.7,4.5,3.7,0,0,.9,1.5,2.9,1.3,0,0,3.8-.2,6.4-5.1.5-.3,2.9,2.9,9.7-1.9,5.5-3.8,9.7-8.5,9.6-15.9,0,0,.2-2.1-1.7-1.7l-3,.3s-1.6-.1-1.4,1.8c0,0,.6,10.1-10.2,12.2,0,0-2.1.7-1.2-1.2,0,0,4.2-7.4,7.1-11,0,0,3.4-3.6,1.3-7.1l-.5-.7s-.3-.7-1.7-.3"></path>
      </g>
    </g>
    <g id="g3881">
      <g id="path3883">
        <path class="st1" d="M1136.4,312.8c-.9-.4-1.5,1.1-1.5,1.1-2.1,5.4,1.6,8.4,1.6,8.4,1.2,1.6,2,.4,2,.4l2.3-1.9v-6.4c-.1,0-4.4-1.5-4.4-1.5ZM1147.2,305.6l.4,16.2c0,1.8,1.4,1.1,1.4,1.1,1.2-.2,1.5.3,1.5.3.5.7-.4,1.1-.4,1.1l-4.3,3.7c-1.4,1.5-2.5-.8-2.5-.8-.5-.6-1.7-2.9-1.7-2.9-.2-1.3-1.4-.6-1.4-.6l-4.7,3.8c-1.7,1.6-3.7-.6-3.7-.6-7.6-6.4,2-15.7,2-15.7,1.3-1.8,2.4-1,2.4-1l4.5,1.7c.4-1.4-.2-5.1-.2-5.1,0-1.3-.8-1.3-.8-1.3l-7.7-2.5c-.7-.2-.4-.7-.4-.7,0-.5,1-.6,1-.6,1.7,0,3.9-1.8,3.9-1.8,1.5-.9,2.5-.2,2.5-.2l4.6,1.6c3.6,1.2,3.6,4.3,3.6,4.3"></path>
      </g>
    </g>
    <g id="g3889">
      <g id="path3891">
        <path class="st1" d="M1175.4,310.7l-1.4,5.4-.4,1.6-1.4,5.5c-.8,2.5,0,2.6,0,2.6l3.3,2.4c.7.5.9-.7.9-.7l4.5-13.7c.7-2.4,0-3.1,0-3.1l-.4-.7c-.9-1.2,0-1.4,0-1.4l3.6-1.4c1.4-.7,1.8.4,1.8.4,2.8,3.6,1.2,7.6,1.2,7.6l-5.2,15.3c-.4,1.7-1.7,1.1-1.7,1.1-3.5-.3-6.3,1.3-6.3,1.3-1.5,1.1-2.5-.4-2.5-.4-.2-.3-4.1-3-4.1-3-1.8-1.4-3.2-.4-3.2-.4l-1.7.8c-1.5,1.2-2.2-.2-2.2-.2-1.7-2.9-6.9-4.7-6.9-4.7-.7,0-.8-.6-.8-.6-.1-.5.5-.8.5-.8l.8-.7c.8-.7.8-1.5.8-1.5l2.2-16.8c.6-4.5-.4-4.6-.4-4.6-.8-.3-.5-.9-.5-.9.2-.4.6-.2.6-.2,6.7,1,6.8,4.6,6.8,4.6l-2.7,17.7c-.3,2.2.7,2.3.7,2.3l2.5,1.6c1.6,1.2,1.9-1.4,1.9-1.4l3.2-12.7v-.3c.4-2.5-.9-3.2-.9-3.2-1.1-.9.1-1.4.1-1.4l2.9-1.7c1.3-.7,1.8,0,1.8,0,3.3,3.2,2.5,6.4,2.5,6.4"></path>
      </g>
    </g>
    <g id="g3893">
      <g id="path3895">
        <path class="st1" d="M1100,304.6l5.7,18.9s1.3,3.3,0,4.8c0,0-.6.2-.4.8,0,0,0,.4.9.5,0,0,5.1,0,6.6,1.4,0,0,1.3,1.3,2-.2,0,0-1-3.6-1.9-6.1l-8.4-26.6s-.8-2.1.5-4.3c0,0,.7-.8.1-1.3,0,0-.5-.4-1.4.2,0,0-1.7,1.1-3.4,3.9,0,0-1.8,3.7-.6,8"></path>
      </g>
    </g>
    <g id="g3897">
      <g id="path3899">
        <path class="st1" d="M1115.5,300.2l3.1,20.2s.8,3.5-.6,4.8c0,0-.6.2-.5.8,0,0,0,.4.8.6,0,0,5.2.6,6.6,2.1,0,0,1.1,1.5,2,0,0,0-.7-3.5-1.2-6.2l-4.6-27.5s-.5-2.2,1.2-4.2c0,0,.8-.7.3-1.2,0,0-.5-.5-1.4,0,0,0-1.8.8-3.9,3.4,0,0-2.5,2.7-1.8,7.2"></path>
      </g>
    </g>
    <g id="g3901">
      <g id="path3903">
        <path class="st1" d="M1061.3,343.1c.4,1.7-.8,2-.8,2-.7.4-1.5,0-1.5,0-.8-.4-1.4-.9-1.4-.9-1.6-1-3.4-3.1-4.4-5.2-3.1-6.4-.3-12.4,1-13.9,0,0,.5-.7.9-.9,0,0,.8-.8,1.3,0,0,0,.3.7.3,1.6,0,0,0,.6,0,1,0,.9-.7,2.3-.6,3.3,0,1.2.6,2.6,1,3.4,1.1,2.1,3.5,6.9,3.9,8.2.3.9.4,1.6.4,1.6M1083.6,341.2c1.2-2.1.2-3-.5-3.3-2.8-1-4,6.4-9.7,8.7-6.4,2.5-8.1.9-8.6,0-1.2-2,2.2-6.2-.2-11.4-2.7-6.1-5.9-9.9-4.4-12.7,1.5-2.7,5.8-2.3,7.9-2.3,4.1,0,4.8-5.3,4.2-6.6-.3-.6-.9-.7-1.5-.4-2,.9-2.5,1.3-4.3,1.6-1.8.3-2.9.4-7,1.3-3.3.7-15.9,10-10,26.2,4.9,13.3,19.3,12.6,24.5,10.4,5.7-2.4,8.5-9.3,9.8-11.4"></path>
      </g>
    </g>
    <g id="g3905">
      <g id="path3907">
        <path class="st1" d="M1195.5,326.3c-.7-.8-1.8.3-1.8.3-4.3,3.9-2.4,8.3-2.4,8.3.3,2,1.6,1.3,1.6,1.3l2.9-.7,2.8-5.8-3.2-3.3ZM1208.4,324.7l-7,14.6c-.8,1.7.8,1.7.8,1.7,1.2.4,1.2.9,1.2.9,0,.8-.9.8-.9.8l-5.5,1.4c-1.9.7-1.9-1.8-1.9-1.8-.2-.7-.3-3.3-.3-3.3.4-1.2-1-1.1-1-1.1l-5.9,1.3c-2.2.7-3-2.2-3-2.2-3.8-9.2,8.9-13.1,8.9-13.1,2-1,2.6.2,2.6.2l3.3,3.5c1-1.1,2.2-4.6,2.2-4.6.6-1.1-.1-1.6-.1-1.6l-5.7-5.7c-.5-.5,0-.8,0-.8.3-.5,1.1,0,1.1,0,1.5.8,4.3.2,4.3.2,1.7-.1,2.3,1,2.3,1l3.4,3.5c2.7,2.7,1.3,5.4,1.3,5.4"></path>
      </g>
    </g>
    <g id="g3909">
      <g id="path3911">
        <path class="st1" d="M1138.6,393.6c1.5,0,3-1.2,4.5-3.6,0,0,21.3-33.2,22.6-35.3,2-2.9-1.7-7.1-4.9-3.5,0,0-16.5,17.7-18.6,20.1-1.3,1.5-2.4,2.3-3.7,2.3s-2.3-.8-3.7-2.3c-2.1-2.4-18.6-20.1-18.6-20.1-3.2-3.6-6.9.6-4.9,3.5,1.4,2,22.6,35.3,22.6,35.3,1.5,2.4,3,3.6,4.5,3.6"></path>
      </g>
    </g>
  </g>
  <g>
    <path class="st1" d="M598.1,596.2h16.4v2.9h-13.2v7.2h11.6v2.8h-11.6v10.8h-3.2v-23.7Z"></path>
    <path class="st1" d="M618.3,596.2h17.2v2.9h-14.1v7.2h13v2.7h-13v8h14.3v2.8h-17.4v-23.7Z"></path>
    <path class="st1" d="M646.8,596.2h3.6l8.6,23.7h-3.5l-2.4-7.1h-9.4l-2.6,7.1h-3.3l8.9-23.7ZM652.1,610.2l-3.6-10.5-3.8,10.5h7.4Z"></path>
    <path class="st1" d="M676.8,596.2v2.8h-8v20.9h-3.2v-20.9h-8v-2.8h19.2Z"></path>
    <path class="st1" d="M683.2,596.2v14.6c0,1.7.3,3.1,1,4.3,1,1.7,2.6,2.6,4.9,2.6s4.6-.9,5.6-2.8c.5-1,.8-2.4.8-4.1v-14.6h3.2v13.3c0,2.9-.4,5.2-1.2,6.7-1.4,2.9-4.2,4.3-8.2,4.3s-6.7-1.4-8.2-4.3c-.8-1.6-1.2-3.8-1.2-6.7v-13.3h3.2Z"></path>
    <path class="st1" d="M703.9,596.2h10.8c1.8,0,3.2.3,4.4.8,2.2,1,3.3,2.9,3.3,5.6s-.3,2.6-.9,3.5-1.4,1.6-2.5,2.2c.9.4,1.6.9,2.1,1.5.5.6.7,1.6.8,3v3.2c.1.9.2,1.6.3,2,.2.8.5,1.2,1,1.5v.5h-3.9c-.1-.2-.2-.5-.3-.8s-.1-.9-.2-1.9l-.2-3.9c0-1.5-.6-2.6-1.7-3.1-.6-.3-1.5-.4-2.8-.4h-7.1v10.2h-3.2v-23.7ZM714.4,607.1c1.5,0,2.6-.3,3.5-.9.9-.6,1.3-1.7,1.3-3.3s-.6-2.8-1.8-3.4c-.6-.3-1.5-.5-2.6-.5h-7.6v8.1h7.2Z"></path>
    <path class="st1" d="M727.7,596.2h17.2v2.9h-14.1v7.2h13v2.7h-13v8h14.3v2.8h-17.4v-23.7Z"></path>
    <path class="st1" d="M749.5,596.2h9.5c3.2,0,5.7,1.2,7.5,3.5,1.6,2.1,2.4,4.8,2.4,8s-.5,4.8-1.4,6.8c-1.6,3.6-4.5,5.4-8.5,5.4h-9.4v-23.7ZM758.4,617.2c1.1,0,1.9-.1,2.6-.3,1.2-.4,2.2-1.2,3-2.4.6-1,1.1-2.2,1.3-3.7.2-.9.2-1.7.2-2.5,0-2.9-.6-5.2-1.7-6.8-1.1-1.6-3-2.4-5.5-2.4h-5.6v18.2h5.6Z"></path>
  </g>
  <g>
    <path class="st1" d="M633.9,142.3c1.6,1.6,2.5,3.4,2.7,5.4h-3.1c-.3-1.5-1-2.7-2.1-3.6s-2.5-1.3-4.4-1.3-4.1.8-5.5,2.5c-1.4,1.6-2.1,4.2-2.1,7.5s.6,5,1.9,6.8c1.3,1.7,3.2,2.6,5.7,2.6s4.1-.9,5.3-2.7c.6-1,1.1-2.2,1.4-3.8h3.1c-.3,2.5-1.2,4.6-2.7,6.3-1.9,2-4.4,3-7.5,3s-5-.8-6.9-2.5c-2.4-2.2-3.6-5.6-3.6-10.2s.9-6.4,2.7-8.6c2-2.4,4.7-3.6,8.2-3.6s5.3.8,6.9,2.4Z"></path>
    <path class="st1" d="M641,140.6h3.2v20.9h11.9v2.8h-15.1v-23.7Z"></path>
    <path class="st1" d="M660.1,140.6h3.2v23.7h-3.2v-23.7Z"></path>
    <path class="st1" d="M668.9,140.6h17.2v2.9h-14.1v7.2h13v2.7h-13v8h14.3v2.8h-17.4v-23.7Z"></path>
    <path class="st1" d="M690.6,140.6h3.8l11.8,19.1v-19.1h3.1v23.7h-3.6l-12-19.1v19.1h-3.1v-23.7Z"></path>
    <path class="st1" d="M731.6,140.6v2.8h-8v20.9h-3.2v-20.9h-8v-2.8h19.2Z"></path>
    <path class="st1" d="M736.7,156.6c0,1.3.4,2.4.9,3.3,1,1.6,2.8,2.4,5.4,2.4s2.2-.2,3.2-.5c1.8-.7,2.8-1.9,2.8-3.6s-.4-2.2-1.2-2.8c-.8-.5-2-1-3.7-1.4l-3.1-.7c-2-.5-3.5-1-4.3-1.6-1.5-1-2.2-2.5-2.2-4.4s.7-3.9,2.1-5.2c1.4-1.4,3.5-2,6.1-2s4.5.6,6.2,1.8c1.7,1.2,2.5,3.1,2.5,5.7h-3c-.2-1.3-.5-2.2-1-2.9-.9-1.2-2.5-1.9-4.8-1.9s-3.1.4-3.9,1.2c-.8.8-1.2,1.7-1.2,2.8s.5,2,1.4,2.5c.6.3,2,.8,4.2,1.3l3.2.8c1.6.4,2.7.9,3.6,1.5,1.5,1.1,2.2,2.7,2.2,4.8s-.9,4.5-2.8,5.6c-1.9,1.1-4,1.7-6.5,1.7s-5.1-.8-6.7-2.3c-1.6-1.5-2.4-3.5-2.4-6.1h3Z"></path>
  </g>
</svg>